<svg xmlns="http://www.w3.org/2000/svg" width="35" height="24" viewBox="0 0 35 24"><defs><linearGradient id="42obc" x1="5.34" x2="32.83" y1="-1.49" y2="28.05" gradientUnits="userSpaceOnUse"><stop offset="0" stop-color="#0a77b4"/><stop offset="1" stop-color="#004a91"/></linearGradient><clipPath id="42oba"><path d="M0 2.72A2.72 2.72 0 0 1 2.72 0h29.56A2.72 2.72 0 0 1 35 2.72v18.56A2.72 2.72 0 0 1 32.28 24H2.72A2.72 2.72 0 0 1 0 21.28z"/></clipPath><clipPath id="42obb"><path d="M-28.88 71.079h92.292V-48.05H-28.88z"/></clipPath></defs><g><g><g><path fill="#f1f1f1" d="M0 2.72A2.72 2.72 0 0 1 2.72 0h29.56A2.72 2.72 0 0 1 35 2.72v18.56A2.72 2.72 0 0 1 32.28 24H2.72A2.72 2.72 0 0 1 0 21.28z"/></g><g clip-path="url(#42oba)"><path fill="#182978" d="M0-2.4h35.324v5.6H0z"/></g><g clip-path="url(#42oba)"><path fill="#e9c564" d="M0 20.8h35.324v5.6H0z"/></g><g clip-path="url(#42oba)"><g transform="matrix(1 0 0 -1 0 24)"><g><g/><g clip-path="url(#42obb)"><g><g><path fill="#1a1f71" d="M12.002 15.803l-1.985-5-.804 4.252c-.095.474-.467.748-.88.748H5.085l-.045-.213c.666-.144 1.424-.377 1.883-.625.28-.152.36-.285.453-.645l1.522-5.864h2.017l3.092 7.347zm7.231-2.028c.006.263.258.544.808.616.273.035 1.026.063 1.88-.33l.333 1.562a5.14 5.14 0 0 1-1.782.325c-1.884 0-3.208-1-3.219-2.432-.012-1.06.946-1.65 1.667-2.003.743-.36.992-.592.988-.914-.005-.494-.593-.712-1.139-.72-.958-.016-1.514.258-1.957.464l-.346-1.613c.446-.204 1.268-.381 2.119-.39 2.002 0 3.311.988 3.317 2.518.008 1.941-2.687 2.049-2.67 2.917zm7.66-5.32h1.765l-1.541 7.348h-1.628a.868.868 0 0 1-.813-.538l-2.864-6.81h2.004l.398 1.098h2.448zm-2.13 2.607l1.012 2.774.58-2.774zm-9.942 4.741l-1.573-7.347h1.903l1.574 7.347z"/></g></g><g><g><path fill="#1a1f71" d="M19.177 6.436H18.4v-.72h.868V5.5H18.14v1.997h1.084v-.216h-.823V6.65h.776z"/></g></g><g><path fill="#1a1f71" d="M19.67 7.604h.262V5.5h-.262z"/></g><g><g><path fill="#1a1f71" d="M21.6 6.172c.005.03.008.068.008.122 0 .263-.121.672-.594.672-.419 0-.674-.338-.674-.77 0-.433.264-.726.707-.726.229 0 .389.05.481.092l-.047.186a.94.94 0 0 0-.399-.074c-.264 0-.487.146-.493.498zm-1.008.181c.021.184.136.428.407.428.298 0 .37-.262.367-.428z"/></g></g><g><g><path fill="#1a1f71" d="M23.029 5.543a1.012 1.012 0 0 0-.413-.083c-.434 0-.716.293-.716.732 0 .441.303.764.772.764a.823.823 0 0 0 .363-.077l-.06-.198a.642.642 0 0 1-.303.068c-.33 0-.508-.246-.508-.542 0-.332.214-.537.5-.537.148 0 .246.036.32.069z"/></g></g><g><g><path fill="#1a1f71" d="M23.758 7.28v-.343h.374v-.199h-.374v-.773c0-.178.05-.279.196-.279.071 0 .113.006.152.018l.012-.199a.716.716 0 0 0-.232-.035.373.373 0 0 0-.282.11c-.071.08-.101.207-.101.376v.782h-.223v.199h.223v.266z"/></g></g><g><g><path fill="#1a1f71" d="M24.513 6.487c0 .169-.003.314-.013.447h.253l.013-.284h.01c.072.192.25.314.443.314.03 0 .052-.003.079-.006v-.246c-.03.006-.06.006-.099.006-.203 0-.348-.136-.387-.332a.71.71 0 0 1-.01-.122V5.5h-.289z"/></g></g><g><g><path fill="#1a1f71" d="M26.815 6.232c0 .435-.28.734-.692.734-.395 0-.713-.281-.713-.758 0-.453.303-.738.689-.738.345 0 .716.231.716.762m-1.138-.02c0 .268.134.55.44.55.309 0 .43-.303.43-.544 0-.321-.186-.554-.436-.554-.256 0-.434.236-.434.548"/></g></g><g><g><path fill="#1a1f71" d="M27.222 6.546c0 .151-.003.27-.012.388h.232l.015-.237h.005a.533.533 0 0 0 .476.267c.199 0 .508-.119.508-.61V5.5h-.262v.827c0 .23-.086.423-.332.423a.377.377 0 0 1-.369-.388V5.5h-.261z"/></g></g></g></g></g></g><g clip-path="url(#42oba)"><g><path fill="#fff" d="M-.68-7h37v37h-37z"/></g><g><path fill="#1790cd" d="M-2.917 28.5c0-.707-.536-1.28-1.269-1.28-.731 0-1.267.573-1.267 1.28 0 .708.538 1.281 1.267 1.281.731 0 1.269-.573 1.269-1.28zm.237 0c0 .834-.672 1.5-1.5 1.5-.829 0-1.5-.666-1.5-1.5 0-.833.671-1.5 1.5-1.5.828 0 1.5.667 1.5 1.5zm-1.358-.5h-.419v.393h.388c.128 0 .24-.03.24-.2 0-.178-.122-.193-.21-.193zm.51 1.19h-.277a1.636 1.636 0 0 1-.04-.371c0-.102-.017-.207-.206-.207h-.406v.577H-4.7v-1.407h.65c.222 0 .47.079.47.392 0 .177-.075.263-.152.317.064.036.119.096.126.256l.01.244c.003.07.01.084.068.117z"/></g><g><path fill="url(#42obc)" d="M8.597 17.438v-.857h2.264v-.893l-2.264.001v-.782h2.585l1.134 1.262-1.18 1.27zm5.052-1.25l1.584-1.715v3.483zm2.617-.189v-1.092h1.35c.37 0 .625.155.625.53 0 .373-.243.562-.637.562zm5.868-.138l-1.262.002v-.956h1.277c.183 0 .369.006.493.073a.42.42 0 0 1 .21.386c0 .185-.08.333-.21.41-.14.08-.309.085-.508.085zm-7.823-1.859l-1.319 1.425-1.267-1.425H7.562v4.34h4.098l1.322-1.43 1.272 1.43h2.012V16.89h1.285c.904 0 1.8-.251 1.8-1.453 0-1.2-.92-1.435-1.735-1.435zm7.912 0h-2.382v4.34h1.031v-1.577l1.113-.002c.376 0 .601.034.75.19.192.205.169.582.169.84v.549h1.042v-.86c-.001-.377-.026-.576-.173-.786-.086-.128-.28-.283-.506-.37.27-.107.733-.462.733-1.152 0-.484-.2-.768-.532-.96-.336-.193-.722-.212-1.245-.212zm5.812 3.438l-2.426-.002v-.857h2.37v-.893l-2.37.001v-.782h2.426v-.905h-3.462v4.34h3.462zm2.75-1.734l-.554-.015a1.274 1.274 0 0 1-.397-.049.328.328 0 0 1-.225-.32c0-.14.044-.243.152-.315.101-.067.227-.073.415-.073h1.895v-.932H30c-1.088 0-1.481.668-1.481 1.291 0 1.378 1.215 1.32 2.18 1.346.176.004.283.03.36.097a.366.366 0 0 1 .126.287.385.385 0 0 1-.122.283c-.087.08-.223.106-.416.106H28.64v.93h2.014c1.047 0 1.625-.443 1.625-1.366 0-.452-.106-.706-.31-.921-.233-.24-.61-.336-1.185-.35zm5.535 1.27c0-.452-.107-.706-.312-.921-.232-.24-.607-.336-1.18-.35l-.556-.014a1.268 1.268 0 0 1-.396-.049.328.328 0 0 1-.227-.32c0-.14.044-.243.154-.315.1-.067.225-.073.41-.073H36.1v-.932h-2.06c-1.088 0-1.482.67-1.482 1.291 0 1.376 1.215 1.32 2.181 1.346.177.004.283.03.36.097a.365.365 0 0 1 .126.287.384.384 0 0 1-.121.283c-.087.08-.224.106-.416.106h-1.99v.93h1.997c1.047 0 1.625-.443 1.625-1.366zM1.927 7.286l.705 1.724h-1.41zM17.71 8.404h-1.26v-.956h1.275c.183 0 .368.006.491.075a.418.418 0 0 1 .213.384c0 .185-.08.333-.213.408-.139.083-.307.089-.506.089zm8.044.606l.7-1.724.7 1.724zM10.478 6.545H8.756L7.512 9.488 6.164 6.545H4.472l.002 4.105L2.72 6.545H1.18l-1.851 4.34H.456l.396-.972h2.152l.398.972h2.103V7.482l1.504 3.403h.909l1.498-3.398v3.398h1.062zm4.224 3.433l-2.42.003v-.86l2.361.001V8.23h-2.36v-.782h2.419v-.903h-3.453v4.34h3.453zm3.097-3.433h-2.382v4.34h1.034v-1.58h1.11c.375 0 .602.033.75.19.192.204.17.583.17.84v.55h1.04v-.862c0-.377-.026-.576-.17-.786a1.168 1.168 0 0 0-.51-.368c.272-.107.736-.464.736-1.152 0-.486-.2-.77-.533-.962-.333-.191-.721-.21-1.245-.21zm2.372 4.34h1.059V6.543H20.17zm13.305-4.34h-1.067l.002 3.02-1.82-3.02h-1.58v4.103l-1.754-4.103h-1.54l-1.458 3.41h-.465c-.278 0-.565-.053-.718-.222-.203-.223-.294-.555-.294-1.017 0-.456.122-.802.303-.983.202-.202.418-.26.8-.26l.968.002v-.93h-.988c-.714 0-1.243.163-1.575.507-.441.462-.555 1.05-.555 1.695 0 .79.184 1.284.547 1.655.36.365.997.483 1.505.483h1.204l.397-.972h2.153l.399.972h2.105l-.001-3.253 1.958 3.253h1.474zm2.619 6.605V-7H-.68V8.56L.566 5.69H3.26l.357.714V5.69h3.157l.687 1.56.679-1.56h10.033c.454 0 .86.083 1.171.348V5.69h2.743v.348c.469-.259 1.059-.348 1.729-.348h3.98l.361.713V5.69h2.946l.412.713V5.69h2.867v6.047h-2.9l-.554-.918v.918h-3.61l-.4-.97h-.889l-.405.97h-1.878c-.744 0-1.303-.182-1.659-.375l.002.375h-4.466v-1.376c0-.192-.03-.207-.154-.207h-.168l.002 1.583H8.67v-.75l-.313.752H6.56L6.248 11v.738H2.773l-.4-.97h-.89l-.398.97H-.68V30h36.775V18.92c-.415.197-.963.277-1.518.277H31.9v-.383c-.309.245-.88.383-1.412.383h-8.441V17.79c0-.161-.013-.176-.183-.175h-.136v1.583H18.94v-1.634c-.46.198-.986.208-1.431.208h-.335v1.426l-3.367-.003-.83-.939-.876.942H6.632V13.15h5.573l.794.927.855-.927h3.737c.429 0 1.128.04 1.447.348v-.348h3.333c.32 0 .996.061 1.4.348v-.348h5.048v.348c.25-.24.79-.348 1.238-.348h2.825v.348c.296-.215.724-.348 1.297-.348z"/></g></g></g></g></svg>