<svg xmlns="http://www.w3.org/2000/svg" width="36" height="36" viewBox="0 0 36 36"><defs><linearGradient id="yoypa" x1="-37.79" x2="36" y1="-43.33" y2="36" gradientUnits="userSpaceOnUse"><stop offset="0" stop-color="#63caf7"/><stop offset="1" stop-color="#3290bb"/></linearGradient></defs><g><g><g><path fill="url(#yoypa)" d="M18 36c9.941 0 18-8.059 18-18S27.941 0 18 0 0 8.059 0 18s8.059 18 18 18z"/></g><g><path fill="#fff" d="M14.625 23.662c.215.203.527.338.838.338.31 0 .622-.135.861-.338l10.317-9.722a1.072 1.072 0 0 0 0-1.602 1.236 1.236 0 0 0-1.7 0l-9.478 8.933-4.404-4.173a1.236 1.236 0 0 0-1.7 0 1.072 1.072 0 0 0 0 1.601z"/></g></g></g></svg>