<svg xmlns="http://www.w3.org/2000/svg" width="19" height="19" viewBox="0 0 19 19"><g><g><g><path fill="#dc8373" d="M14.82 15.74c0 1.02-.8 1.82-1.82 1.82H5.4c-1.02 0-1.82-.8-1.82-1.82V4.44H14.8v11.28h.02zM9.18 1.64h.06c.8 0 1.48.52 1.7 1.24H7.46c.24-.72.9-1.24 1.72-1.24zm8.34 1.24h-5a3.354 3.354 0 0 0-3.3-2.8h-.06c-1.66 0-3.04 1.22-3.3 2.8h-5c-.44 0-.78.34-.78.78s.34.78.78.78H2v11.28c0 1.88 1.5 3.38 3.38 3.38h7.56c1.88 0 3.38-1.5 3.38-3.38V4.44h1.18c.44 0 .78-.34.78-.78s-.32-.78-.76-.78z"/></g><g><path fill="#dc8373" d="M6.84 14.98c.44 0 .78-.34.78-.78V7.86c0-.44-.34-.78-.78-.78s-.78.34-.78.78v6.34c0 .44.34.78.78.78z"/></g><g><path fill="#dc8373" d="M11.56 14.98c.44 0 .78-.34.78-.78V7.86c0-.44-.34-.78-.78-.78s-.78.34-.78.78v6.34c0 .44.38.78.78.78z"/></g></g></g></svg>