<svg xmlns="http://www.w3.org/2000/svg" width="14" height="16" viewBox="0 0 14 16"><g><g><g><path fill="#323f50" d="M9.688 8.822c-.576 0-1.08-.468-1.08-1.08 0-.612.468-1.08 1.08-1.08.612 0 1.08.468 1.08 1.08 0 .612-.504 1.08-1.08 1.08zm3.654-1.746h-1.368c-.288-1.008-1.206-1.746-2.286-1.746s-1.998.756-2.304 1.746H.706a.664.664 0 0 0-.666.666c0 .36.288.666.666.666h6.678c.288 1.008 1.206 1.746 2.286 1.746s1.998-.738 2.286-1.746h1.368c.36 0 .666-.288.666-.666a.638.638 0 0 0-.648-.666z"/></g><g><path fill="#323f50" d="M4.416 1.385c.578 0 1.084.467 1.084 1.077 0 .61-.47 1.077-1.084 1.077a1.084 1.084 0 0 1-1.084-1.077c0-.575.506-1.077 1.084-1.077zM.706 3.128h1.422c.288 1.008 1.206 1.746 2.286 1.746S6.412 4.136 6.7 3.128h6.642c.36 0 .666-.288.666-.666a.653.653 0 0 0-.666-.666H6.7C6.412.788 5.494.05 4.414.05S2.416.788 2.128 1.796H.706a.664.664 0 0 0-.666.666c0 .378.288.666.666.666z"/></g><g><path fill="#323f50" d="M4.416 14.09a1.084 1.084 0 0 1-1.084-1.078c0-.61.47-1.077 1.084-1.077.614 0 1.084.467 1.084 1.077 0 .61-.506 1.077-1.084 1.077zm8.926-1.744H6.7C6.412 11.338 5.494 10.6 4.414 10.6s-1.998.738-2.286 1.746H.706a.664.664 0 0 0-.666.666c0 .378.288.666.666.666h1.422c.288 1.008 1.206 1.746 2.286 1.746s1.998-.738 2.286-1.746h6.642c.36 0 .666-.288.666-.666a.653.653 0 0 0-.666-.666z"/></g></g></g></svg>