<svg xmlns="http://www.w3.org/2000/svg" width="29" height="33" viewBox="0 0 29 33"><g><g><g><g><g><path fill="#fff" d="M14.323 26.56c-6.84 0-12.406-5.553-12.406-12.38 0-6.824 5.565-12.377 12.406-12.377 6.842 0 12.407 5.552 12.407 12.378 0 6.825-5.566 12.379-12.407 12.379zm0-26.56C8.873 0 4.13 3.078 1.746 7.584A14.131 14.131 0 0 0 0 14.408c0 6.958 5.593 12.192 11.825 18.24l2.43-2.424 2.429 2.424c3.928-3.813 7.602-7.303 9.783-11.105a14.07 14.07 0 0 0 2.07-7.362C28.535 6.36 22.16 0 14.322 0z"/></g><g><path fill="#fff" d="M20.972 18.135c-.873 0-1.607.58-1.81 1.363-1.668-.753-2.824-2.387-2.824-4.284 0-2.61 2.19-4.726 4.89-4.726.162 0 .32.008.477.022-.106-.9-.896-1.598-1.855-1.598a1.91 1.91 0 0 0-.701.132l-.026-.018c-.005.011-.008.022-.012.034a1.804 1.804 0 0 0-1.122 1.788 4.96 4.96 0 0 1-3.518 1.443c1.032 0 1.943-.5 2.488-1.263a3.973 3.973 0 0 1-.156.003c-1.81 0-3.39-.95-4.235-2.362.75.45 1.634.713 2.582.713.829 0 1.608-.2 2.29-.551-.262-1.355-1.491-2.381-2.97-2.381-1.668 0-3.021 1.308-3.021 2.921 0 1.562 1.27 2.838 2.865 2.917a4.955 4.955 0 0 1-3.345-1.424 1.49 1.49 0 0 0 .007-.147c0-.75-.474-1.393-1.148-1.665l-.008-.025-.02.014a1.917 1.917 0 0 0-.692-.128c-.958 0-1.748.698-1.854 1.596.151-.013.305-.02.46-.02 2.7 0 4.89 2.115 4.89 4.726 0 1.862-1.115 3.473-2.735 4.243-.22-.762-.942-1.322-1.8-1.322-.297 0-.579.067-.829.187.263.572.598 1.105.99 1.592l.092.112.01.012c.143.17.293.333.45.49l.015.014a9.168 9.168 0 0 0 .163.157c.05.048.103.095.154.142a7.797 7.797 0 0 0 .705.558c.637-1.895 2.479-3.265 4.652-3.265s4.015 1.37 4.652 3.265c.199-.14.39-.29.575-.446l.02-.017c.05-.042.098-.085.147-.129l.018-.016a7.61 7.61 0 0 0 .763-.796l.008-.01.059-.071h-.001a7.602 7.602 0 0 0 1.007-1.629 1.914 1.914 0 0 0-.747-.15z"/></g></g></g></g></g></svg>