<svg xmlns="http://www.w3.org/2000/svg" width="166" height="35" viewBox="0 0 166 35"><g><g><g><g><g><g><path fill="#fff" d="M15.145 28.073c-7.233 0-13.118-5.87-13.118-13.084 0-7.214 5.884-13.083 13.118-13.083s13.117 5.869 13.117 13.083-5.884 13.084-13.117 13.084zm0-28.073C9.38 0 4.365 3.255 1.845 8.02A14.942 14.942 0 0 0 0 15.233c0 7.358 5.914 12.891 12.503 19.286.702-.7 1.53-1.525 2.568-2.563l2.57 2.563c4.153-4.032 8.038-7.722 10.343-11.742a14.877 14.877 0 0 0 2.188-7.784C30.172 6.726 23.432 0 15.145 0z"/></g><g><path fill="#fff" d="M22.18 19.176c-.924 0-1.7.613-1.915 1.44-1.763-.796-2.985-2.524-2.985-4.53 0-2.759 2.315-4.997 5.17-4.997.171 0 .339.009.505.024-.112-.95-.948-1.69-1.962-1.69-.262 0-.513.05-.741.14-.01-.006-.02-.013-.028-.02l-.012.036c-.701.293-1.193.967-1.193 1.753 0 .046.003.092.007.138a5.244 5.244 0 0 1-3.72 1.526c1.09 0 2.054-.529 2.63-1.335l-.165.003c-1.913 0-3.584-1.005-4.478-2.498a5.279 5.279 0 0 0 2.73.754c.877 0 1.7-.212 2.423-.583-.278-1.432-1.578-2.517-3.14-2.517-1.765 0-3.196 1.383-3.196 3.089 0 1.651 1.342 3 3.03 3.084a5.239 5.239 0 0 1-3.537-1.506c.005-.051.007-.102.007-.155 0-.793-.501-1.473-1.213-1.761l-.01-.027-.02.015a2.027 2.027 0 0 0-.731-.135c-1.014 0-1.849.738-1.962 1.688.16-.014.323-.022.487-.022 2.855 0 5.17 2.237 5.17 4.997 0 1.97-1.178 3.673-2.891 4.487-.232-.806-.996-1.398-1.903-1.398-.315 0-.612.071-.877.198a8.031 8.031 0 0 0 1.047 1.683c.032.04.064.079.098.118l.01.013c.15.18.31.352.475.518l.017.016a9.68 9.68 0 0 0 .172.166l.162.149a8.245 8.245 0 0 0 .746.59c.674-2.003 2.62-3.451 4.918-3.451s4.246 1.448 4.919 3.451c.21-.148.413-.306.608-.471l.021-.018c.053-.045.105-.09.156-.137l.02-.017a8.048 8.048 0 0 0 .805-.841l.01-.011.061-.075h-.001a8.037 8.037 0 0 0 1.066-1.722 2.024 2.024 0 0 0-.79-.16z"/></g></g></g></g><g><g><path fill="#fff" d="M48.1 11.741c2.881 0 5.084 2.131 5.084 5.3 0 3.225-2.203 5.3-5.084 5.3-2.994 0-5.084-2.075-5.084-5.3 0-3.168 2.09-5.3 5.084-5.3zm-.023-4.551c-5.57 0-10.037 4.263-10.037 9.85 0 5.617 4.467 9.851 10.037 9.851 5.57 0 10.093-4.234 10.093-9.85 0-5.588-4.523-9.85-10.093-9.851z"/></g><g><path fill="#fff" d="M79.59 18.485c0 5.097-3.533 8.41-8.254 8.41-4.75 0-8.256-3.313-8.256-8.41V7.54h4.864v11.32c0 2.189 1.413 3.485 3.392 3.485 1.98 0 3.393-1.296 3.393-3.485V7.54h4.864l-.002 10.945z"/></g><g><path fill="#fff" d="M89.772 11.86h2.488c1.358 0 2.234.894 2.234 2.218 0 1.354-.876 2.247-2.234 2.247h-2.488zm6.22 14.69h5.428L96.5 19.493c1.809-1.123 2.94-3.023 2.94-5.415 0-4.032-3.11-6.538-7.21-6.538H84.91v19.01h4.864v-5.906h2.006l4.213 5.906z"/></g><g><path fill="#fff" d="M131.1 7.536l-7.69 19.355h-1.556l-4.75-9.937-4.778 9.937h-1.556l-7.69-19.355h5.429l3.505 9.13 4.298-9.476h1.555l4.297 9.476 3.506-9.13z"/></g><g><path fill="#fff" d="M141.254 20.987h-3.25l1.639-4.407zm2.404 5.559h5.232L140.407 7.19h-1.555l-8.482 19.356h5.23l.679-1.584h6.7z"/></g><g><path fill="#fff" d="M159.572 19.262v7.288h-4.863v-7.23L148.29 7.54h5.373l3.477 6.625 3.477-6.625h5.342z"/></g></g></g></g></svg>