<svg xmlns="http://www.w3.org/2000/svg" width="10" height="10" viewBox="0 0 10 10"><g><g clip-path="url(#clip-4E5154C1-D834-43E7-B5D4-6C73C4F6E856)"><path fill="#318fba" d="M6.68 8.674a5.34 5.34 0 0 0 1.118-1.825h.793a4.066 4.066 0 0 1-1.91 1.825zM1.41 6.849h.793c.242.672.62 1.288 1.117 1.825a4.066 4.066 0 0 1-1.91-1.825zm1.905-5.525a5.363 5.363 0 0 0-1.111 1.827h-.794a4.053 4.053 0 0 1 1.905-1.827zm5.267 1.827h-.794a5.363 5.363 0 0 0-1.11-1.827A4.055 4.055 0 0 1 8.58 3.151zm-.54.959h.9a4.034 4.034 0 0 1 0 1.78h-.898c.046-.286.072-.578.072-.877 0-.308-.027-.61-.075-.903zM5.478 5.89V4.11h1.589a4.632 4.632 0 0 1 .006 1.78zm0 2.599v-1.64h1.29a4.484 4.484 0 0 1-1.29 1.64zm-.958.002A4.484 4.484 0 0 1 3.23 6.85h1.29zm0-6.978V3.15H3.245A4.578 4.578 0 0 1 4.52 1.513zm.958.003c.56.455.99 1.007 1.275 1.625H5.48zM2.843 5.013c0-.31.032-.61.091-.903h1.587v1.78H2.927a4.642 4.642 0 0 1-.084-.877zM.96 5c0-.306.035-.604.1-.89h.9a5.592 5.592 0 0 0-.075.903c0 .299.026.591.072.877H1.06a4.043 4.043 0 0 1-.1-.89zM5 0C2.243 0 0 2.243 0 5s2.243 5 5 5 5-2.243 5-5-2.243-5-5-5z"/></g></g></svg>