<svg xmlns="http://www.w3.org/2000/svg" width="35" height="24" viewBox="0 0 35 24"><defs><clipPath id="na9qa"><path d="M0 2.72A2.72 2.72 0 0 1 2.72 0h29.56A2.72 2.72 0 0 1 35 2.72v18.56A2.72 2.72 0 0 1 32.28 24H2.72A2.72 2.72 0 0 1 0 21.28z"/></clipPath></defs><g><g><g><path fill="#f1f1f1" d="M0 2.72A2.72 2.72 0 0 1 2.72 0h29.56A2.72 2.72 0 0 1 35 2.72v18.56A2.72 2.72 0 0 1 32.28 24H2.72A2.72 2.72 0 0 1 0 21.28z"/></g><g clip-path="url(#na9qa)"><path fill="#fff" d="M0 2.72A2.72 2.72 0 0 1 2.72 0h29.884a2.72 2.72 0 0 1 2.72 2.72v18.56a2.72 2.72 0 0 1-2.72 2.72H2.72A2.72 2.72 0 0 1 0 21.28z"/></g><g clip-path="url(#na9qa)"><g/><g><path fill="#231f20" d="M11.863 18.877c-.01.139.041.276.14.377a.51.51 0 0 0 .376.154.506.506 0 0 0 .507-.494.505.505 0 0 0-.49-.51.507.507 0 0 0-.53.473zm1.356.81h-.363v-.2a.639.639 0 0 1-.524.24.867.867 0 0 1-.874-.859c0-.474.391-.86.874-.86.204-.007.399.083.524.242v-.2h.363zm12.274-.81a.496.496 0 0 0 .507.53.503.503 0 0 0 .502-.493.503.503 0 0 0-.486-.51.504.504 0 0 0-.523.473zm1.922.693v.041h.039a.037.037 0 0 0 .02 0 .017.017 0 0 0 0-.016.017.017 0 0 0 0-.015.037.037 0 0 0-.02 0zm.043-.03c.017 0 .034.005.048.014a.042.042 0 0 1 .017.036.04.04 0 0 1-.013.031.067.067 0 0 1-.039.016l.054.056h-.043l-.05-.056h-.016v.056h-.036v-.15zm.036.195a.131.131 0 0 0 .04-.028.126.126 0 0 0 0-.172.13.13 0 0 0-.09-.038.133.133 0 0 0-.093.038.126.126 0 0 0 0 .172.131.131 0 0 0 .098.038h-.004a.126.126 0 0 0 .049-.01zm.016-.268c.02.008.038.02.054.034a.157.157 0 0 1 0 .23.175.175 0 0 1-.054.035.175.175 0 0 1-.224-.086.16.16 0 0 1 .09-.213.178.178 0 0 1 .073-.012h-.001c.02 0 .042.004.062.012zm-.673.22h-.35v-.2a.639.639 0 0 1-.524.24.867.867 0 0 1-.874-.859c0-.474.391-.86.874-.86.204-.007.4.083.524.241v-.859h.35zm-9.114-1.358a.427.427 0 0 0-.444.398h.874a.404.404 0 0 0-.128-.285.418.418 0 0 0-.295-.113zm.012-.317c.469 0 .794.344.794.86v.137h-1.241c.028.245.25.424.5.403a.803.803 0 0 0 .486-.172l.174.264a1.027 1.027 0 0 1-.694.224.867.867 0 0 1-.886-.848.866.866 0 0 1 .862-.871zm4.382.856c-.01.138.04.273.136.372.096.1.23.156.37.154a.501.501 0 0 0 .503-.488.5.5 0 0 0-.486-.505.502.502 0 0 0-.523.467zm1.352.819h-.363v-.2a.639.639 0 0 1-.525.24.867.867 0 0 1-.873-.859c0-.474.39-.86.873-.86.204-.007.4.083.525.242v-.2h.363zm-3.404-.826a.82.82 0 0 1 .254-.623.861.861 0 0 1 .643-.236c.22-.01.436.059.605.196l-.176.289a.75.75 0 0 0-.44-.148.533.533 0 0 0-.496.526c0 .275.216.504.497.526a.75.75 0 0 0 .44-.148l.175.289a.893.893 0 0 1-.605.196.861.861 0 0 1-.643-.236.82.82 0 0 1-.254-.624zm4.676-.859a.79.79 0 0 1 .26.045l-.113.343a.6.6 0 0 0-.227-.04c-.23 0-.35.15-.35.422v.921h-.363V18.05h.36v.2a.495.495 0 0 1 .44-.241zm-9.898.468a1.077 1.077 0 0 0-.52-.141c-.199 0-.317.082-.317.192s.125.141.282.162l.173.024c.361.051.58.179.58.491 0 .313-.278.537-.757.537a1.206 1.206 0 0 1-.719-.213l.174-.279a.89.89 0 0 0 .552.172c.247 0 .378-.072.378-.2 0-.092-.093-.144-.291-.171l-.174-.024c-.371-.052-.573-.217-.573-.485 0-.327.275-.526.695-.526a1.25 1.25 0 0 1 .677.172zm4.85-.468a.79.79 0 0 1 .258.045l-.112.343a.6.6 0 0 0-.227-.04c-.23 0-.35.15-.35.422v.921H18.9V18.05h.36v.2a.495.495 0 0 1 .44-.241zm-3.08.375h-.6v.75c0 .164.068.274.244.274a.688.688 0 0 0 .324-.093l.105.306a.875.875 0 0 1-.457.128c-.434 0-.585-.227-.585-.609v-.756h-.341v-.327h.334v-.498h.37v.498h.602zm-5.81 1.323v-.914c0-.279-.12-.433-.368-.433a.397.397 0 0 0-.308.124.383.383 0 0 0-.1.312v.911h-.368v-.914c0-.279-.122-.433-.363-.433a.395.395 0 0 0-.309.123.381.381 0 0 0-.1.313v.904H8.52V18.05h.364v.203a.555.555 0 0 1 .489-.244.616.616 0 0 1 .552.292.65.65 0 0 1 .587-.292.628.628 0 0 1 .479.18c.126.125.19.298.178.473v1.031z"/></g><g><g><path fill="#ff5f00" d="M14.89 5.53h5.505v9.731H14.89z"/></g><g><path fill="#eb001b" d="M15.246 10.4a6.142 6.142 0 0 1 2.403-4.867c-2.58-1.994-6.284-1.704-8.51.667a6.114 6.114 0 0 0 0 8.397c2.226 2.37 5.93 2.661 8.51.667a6.142 6.142 0 0 1-2.403-4.865z"/></g><g><path fill="#f79e1b" d="M27.82 10.39c0 2.37-1.376 4.53-3.542 5.566a6.377 6.377 0 0 1-6.638-.701 6.152 6.152 0 0 0 2.404-4.866 6.152 6.152 0 0 0-2.404-4.865 6.377 6.377 0 0 1 6.638-.702c2.166 1.036 3.542 3.197 3.542 5.566z"/></g><g><path fill="#f79e1b" d="M28.03 14.486v-.373l-.128.32h-.09l-.128-.32v.37h-.086v-.493h.106l.139.352.138-.352h.119v.493zm-.762-.003v-.409H27.1v-.084h.393v.084h-.155v.409z"/></g></g></g></g></g></svg>