<svg xmlns="http://www.w3.org/2000/svg" width="11" height="9" viewBox="0 0 11 9"><g><g clip-path="url(#clip-4E5154C1-D834-43E7-B5D4-6C73C4F6E856)"><g><g><path fill="#318fba" d="M3.406 4.212a2.106 2.106 0 1 0 0-4.212 2.106 2.106 0 0 0 0 4.212z"/></g><g><path fill="#318fba" d="M7.857 5.996c-.488 0-.967.126-1.392.368A3.44 3.44 0 0 0 3.52 4.7h-.074A3.446 3.446 0 0 0 0 8.149v.853h10.692v-.17a2.835 2.835 0 0 0-2.835-2.836z"/></g><g><path fill="#318fba" d="M7.942 5.514a1.782 1.782 0 1 0 0-3.564 1.782 1.782 0 0 0 0 3.564z"/></g></g></g></g></svg>