<svg xmlns="http://www.w3.org/2000/svg" width="44" height="44" viewBox="0 0 44 44"><defs><mask id="hdswb" width="2" height="2" x="-1" y="-1"><path fill="#fff" d="M11 4h22v22H11z"/><path d="M22 26c6.075 0 11-4.925 11-11S28.075 4 22 4 11 8.925 11 15s4.925 11 11 11z"/></mask><filter id="hdswa" width="70" height="77" x="-13" y="-20" filterUnits="userSpaceOnUse"><feOffset dy="7" in="SourceGraphic" result="FeOffset1046Out"/><feGaussianBlur in="FeOffset1046Out" result="FeGaussianBlur1047Out" stdDeviation="5.6 5.6"/></filter><clipPath id="hdswc"><path fill="#fff" d="M22 26c6.075 0 11-4.925 11-11S28.075 4 22 4 11 8.925 11 15s4.925 11 11 11z"/></clipPath></defs><g><g><g filter="url(#hdswa)"><path fill="none" d="M22 26c6.075 0 11-4.925 11-11S28.075 4 22 4 11 8.925 11 15s4.925 11 11 11z" mask="url(&quot;#hdswb&quot;)"/><path fill="#e8a035" fill-opacity=".33" d="M22 26c6.075 0 11-4.925 11-11S28.075 4 22 4 11 8.925 11 15s4.925 11 11 11z"/></g><path fill="none" stroke="#000" stroke-miterlimit="20" stroke-width="4" d="M22 26c6.075 0 11-4.925 11-11S28.075 4 22 4 11 8.925 11 15s4.925 11 11 11z" clip-path="url(&quot;#hdswc&quot;)"/></g></g></svg>