<svg xmlns="http://www.w3.org/2000/svg" width="12" height="12" viewBox="0 0 12 12"><defs><mask id="k0job" width="2" height="2" x="-1" y="-1"><path fill="#fff" d="M11 4h12v12H11z"/><path d="M17 16a6 6 0 1 0 0-12 6 6 0 0 0 0 12z"/></mask><filter id="k0joa" width="60" height="67" x="-13" y="-20" filterUnits="userSpaceOnUse"><feOffset dy="7" in="SourceGraphic" result="FeOffset1023Out"/><feGaussianBlur in="FeOffset1023Out" result="FeGaussianBlur1024Out" stdDeviation="5.6 5.6"/></filter><linearGradient id="k0joc" x1="11.27" x2="23" y1="4" y2="16" gradientUnits="userSpaceOnUse"><stop offset="0" stop-color="#e8a035"/><stop offset="1" stop-color="#e08959"/></linearGradient></defs><g><g><g filter="url(#k0joa)"><path fill="none" d="M17 16a6 6 0 1 0 0-12 6 6 0 0 0 0 12z" mask="url(&quot;#k0job&quot;)"/><path fill="#e8a035" fill-opacity=".33" d="M17 16a6 6 0 1 0 0-12 6 6 0 0 0 0 12z"/></g><path fill="url(#k0joc)" d="M17 16a6 6 0 1 0 0-12 6 6 0 0 0 0 12z"/></g></g></svg>