<svg xmlns="http://www.w3.org/2000/svg" width="35" height="24" viewBox="0 0 35 24"><defs><clipPath id="iskfa"><path d="M0 2.72A2.72 2.72 0 0 1 2.72 0h29.56A2.72 2.72 0 0 1 35 2.72v18.56A2.72 2.72 0 0 1 32.28 24H2.72A2.72 2.72 0 0 1 0 21.28z"/></clipPath></defs><g><g><g><path fill="#182978" d="M0 2.72A2.72 2.72 0 0 1 2.72 0h29.56A2.72 2.72 0 0 1 35 2.72v18.56A2.72 2.72 0 0 1 32.28 24H2.72A2.72 2.72 0 0 1 0 21.28z"/></g><g clip-path="url(#iskfa)"><g><path fill="#fff" d="M15.228 15.858H13.29l1.212-7.618h1.937z"/></g><g><path fill="#fff" d="M22.252 8.424a4.706 4.706 0 0 0-1.738-.324c-1.913 0-3.26 1.037-3.269 2.52-.016 1.095.965 1.702 1.698 2.067.75.373 1.005.616 1.005.949-.008.51-.606.745-1.164.745-.773 0-1.188-.12-1.818-.405l-.255-.122-.271 1.71c.454.211 1.292.398 2.16.406 2.034 0 3.357-1.021 3.373-2.602.008-.867-.51-1.532-1.626-2.075-.678-.348-1.093-.583-1.093-.94.008-.324.351-.656 1.116-.656a3.246 3.246 0 0 1 1.443.292l.176.08.263-1.645z"/></g><g><path fill="#fff" d="M27.22 8.24l1.562 7.618h-1.794s-.175-.875-.23-1.143H24.27l-.407 1.143H21.83l2.878-6.986c.2-.494.55-.632 1.013-.632zm-2.392 4.923h1.61c-.08-.382-.446-2.21-.446-2.21l-.136-.657c-.096.284-.263.747-.255.73l-.773 2.137z"/></g><g><path fill="#fff" d="M11.674 8.24l-1.898 5.195-.207-1.054c-.351-1.215-1.451-2.536-2.679-3.193l1.738 6.662h2.049l3.045-7.61h-2.048z"/></g><g><path fill="#fff" d="M8.01 8.24H4.891l-.032.154c2.432.632 4.042 2.156 4.704 3.988L8.886 8.88c-.111-.486-.454-.624-.877-.64z"/></g></g></g></g></svg>